<svg width="634" height="512" viewBox="0 0 634 512" fill="none" xmlns="http://www.w3.org/2000/svg">
<path d="M634 449.938H0V450.281H634V449.938Z" fill="#E6E6E6"/>
<path d="M144.374 460.959H100.755V461.303H144.374V460.959Z" fill="#E6E6E6"/>
<path d="M165.766 460.959H152.731V461.303H165.766V460.959Z" fill="#E6E6E6"/>
<path d="M230.079 454.212H205.53V454.555H230.079V454.212Z" fill="#E6E6E6"/>
<path d="M546.013 468.587H491.249V468.93H546.013V468.587Z" fill="#E6E6E6"/>
<path d="M565.338 468.587H557.311V468.93H565.338V468.587Z" fill="#E6E6E6"/>
<path d="M505.108 456.521H386.322V456.864H505.108V456.521Z" fill="#E6E6E6"/>
<path d="M300.516 388.645H55.6779C53.7598 388.641 51.9215 387.813 50.5664 386.342C49.2114 384.871 48.4503 382.877 48.4503 380.798V7.7784C48.467 5.71152 49.2354 3.73525 50.5887 2.27885C51.942 0.822446 53.7708 0.00354067 55.6779 0H300.516C302.436 0 304.278 0.826747 305.636 2.29837C306.993 3.76999 307.756 5.76593 307.756 7.84711V380.798C307.756 382.879 306.993 384.875 305.636 386.347C304.278 387.818 302.436 388.645 300.516 388.645V388.645ZM55.6779 0.274856C53.8439 0.278497 52.0862 1.07065 50.7906 2.47744C49.495 3.88424 48.7673 5.79071 48.7673 7.7784V380.798C48.7673 382.786 49.495 384.692 50.7906 386.099C52.0862 387.506 53.8439 388.298 55.6779 388.301H300.516C302.351 388.298 304.11 387.506 305.408 386.1C306.705 384.693 307.436 382.787 307.439 380.798V7.7784C307.436 5.78945 306.705 3.883 305.408 2.4766C304.11 1.0702 302.351 0.278489 300.516 0.274856H55.6779Z" fill="#E6E6E6"/>
<path d="M574.797 388.645H329.946C328.027 388.641 326.187 387.814 324.83 386.343C323.473 384.872 322.709 382.878 322.706 380.798V7.7784C322.726 5.71027 323.497 3.73401 324.853 2.27799C326.208 0.821966 328.038 0.00350205 329.946 0H574.797C576.702 0.00715241 578.528 0.827656 579.878 2.28367C581.229 3.73969 581.995 5.7139 582.012 7.7784V380.798C582.012 382.874 581.253 384.866 579.9 386.337C578.548 387.808 576.713 388.638 574.797 388.645V388.645ZM329.946 0.274856C328.111 0.278489 326.352 1.0702 325.054 2.4766C323.757 3.883 323.026 5.78945 323.023 7.7784V380.798C323.026 382.787 323.757 384.693 325.054 386.1C326.352 387.506 328.111 388.298 329.946 388.301H574.797C576.632 388.298 578.391 387.506 579.689 386.1C580.987 384.693 581.717 382.787 581.72 380.798V7.7784C581.717 5.78945 580.987 3.883 579.689 2.4766C578.391 1.0702 576.632 0.278489 574.797 0.274856H329.946Z" fill="#E6E6E6"/>
<path d="M531.317 262.638H442.469V449.938H531.317V262.638Z" fill="#F5F5F5"/>
<path d="M531.317 262.638H523.988V449.938H531.317V262.638Z" fill="#F0F0F0"/>
<path d="M244.749 308.442H449.316V267.984H244.749V308.442Z" fill="#E0E0E0"/>
<path d="M330.048 450.075H242.34C242.004 450.075 241.681 449.93 241.444 449.673C241.206 449.415 241.072 449.065 241.072 448.701C241.072 448.336 241.206 447.987 241.444 447.729C241.681 447.471 242.004 447.327 242.34 447.327H330.048C342.728 447.327 344.414 443.314 344.414 427.4V226.755C344.414 226.391 344.548 226.041 344.786 225.784C345.023 225.526 345.346 225.381 345.682 225.381C346.018 225.381 346.341 225.526 346.579 225.784C346.817 226.041 346.95 226.391 346.95 226.755V427.4C346.95 444.413 344.516 450.075 330.048 450.075Z" fill="#E0E0E0"/>
<path d="M252.611 277.411L529.314 277.411V263.366L252.611 263.366V277.411Z" fill="#F0F0F0"/>
<path d="M254.614 262.638H165.766V449.938H254.614V262.638Z" fill="#F5F5F5"/>
<path d="M254.602 262.638H247.273V449.938H254.602V262.638Z" fill="#F0F0F0"/>
<path d="M191.696 449.938L191.696 116.401H115.451L115.451 449.938H191.696Z" fill="#FAFAFA"/>
<path d="M187.512 199.71V126.145H119.636V199.71H187.512Z" fill="#F5F5F5"/>
<path d="M138.542 125.155H168.644C168.644 127.178 167.903 129.118 166.583 130.549C165.263 131.979 163.473 132.782 161.607 132.782H145.63C144.701 132.79 143.781 132.598 142.921 132.218C142.061 131.838 141.28 131.277 140.621 130.568C139.962 129.859 139.439 129.016 139.082 128.087C138.725 127.158 138.542 126.162 138.542 125.155V125.155Z" fill="#E0E0E0"/>
<path d="M187.499 279.871V206.306H119.623V279.871H187.499Z" fill="#F5F5F5"/>
<path d="M187.512 360.033V286.468H119.636V360.033H187.512Z" fill="#F5F5F5"/>
<path d="M187.512 440.208V366.643H119.636V440.208H187.512Z" fill="#F5F5F5"/>
<path d="M138.542 205.33H168.644C168.641 207.352 167.898 209.29 166.579 210.72C165.26 212.149 163.472 212.954 161.607 212.958H145.63C144.702 212.963 143.782 212.77 142.923 212.389C142.064 212.009 141.283 211.448 140.625 210.739C139.966 210.031 139.443 209.188 139.086 208.26C138.728 207.332 138.543 206.336 138.542 205.33Z" fill="#E0E0E0"/>
<path d="M138.542 285.492H168.644C168.644 287.515 167.903 289.455 166.583 290.885C165.263 292.316 163.473 293.119 161.607 293.119H145.63C144.701 293.126 143.781 292.934 142.921 292.554C142.061 292.174 141.28 291.614 140.621 290.905C139.962 290.196 139.439 289.352 139.082 288.424C138.725 287.495 138.542 286.498 138.542 285.492V285.492Z" fill="#E0E0E0"/>
<path d="M138.542 365.653H168.644C168.644 367.676 167.903 369.616 166.583 371.047C165.263 372.477 163.473 373.281 161.607 373.281H145.63C144.701 373.288 143.781 373.096 142.921 372.716C142.061 372.336 141.28 371.775 140.621 371.066C139.962 370.357 139.439 369.514 139.082 368.585C138.725 367.656 138.542 366.66 138.542 365.653V365.653Z" fill="#E0E0E0"/>
<path d="M115.451 449.938L115.451 116.401H77.3733L77.3733 449.938H115.451Z" fill="#F0F0F0"/>
<path d="M335.247 262.638H316.087L320.741 222.207H339.913L335.247 262.638Z" fill="#F0F0F0"/>
<path d="M339.494 262.638H320.322L324.988 222.207H344.148L339.494 262.638Z" fill="#F5F5F5"/>
<path d="M380.603 262.638H366.744L364.094 258.061H377.94L380.603 262.638Z" fill="#F0F0F0"/>
<path d="M454.857 262.638H370.979L368.329 258.061H443.546L454.857 262.638Z" fill="#FAFAFA"/>
<path d="M274.471 251.039H280.532C283.371 251.039 286.093 252.261 288.1 254.436C290.107 256.611 291.234 259.562 291.234 262.638H263.744C263.744 261.112 264.022 259.602 264.561 258.193C265.1 256.784 265.891 255.504 266.887 254.426C267.884 253.349 269.067 252.495 270.368 251.914C271.669 251.333 273.064 251.035 274.471 251.039V251.039Z" fill="#F0F0F0"/>
<path d="M341.815 242.422H322.655L324.988 222.207H344.148L341.815 242.422Z" fill="#F0F0F0"/>
<path d="M271.352 237.585H407.028C407.295 237.585 407.559 237.524 407.802 237.405C408.046 237.286 408.263 237.112 408.439 236.895C408.616 236.677 408.748 236.422 408.826 236.145C408.904 235.868 408.926 235.577 408.892 235.29L398.444 144.697C398.388 144.204 398.168 143.75 397.824 143.421C397.481 143.092 397.038 142.911 396.58 142.911H260.942C260.676 142.911 260.413 142.972 260.171 143.09C259.928 143.208 259.712 143.381 259.536 143.596C259.359 143.812 259.227 144.066 259.148 144.341C259.07 144.616 259.045 144.906 259.078 145.192L269.526 235.798C269.581 236.284 269.796 236.733 270.131 237.061C270.467 237.389 270.9 237.575 271.352 237.585V237.585Z" fill="#F0F0F0"/>
<path d="M273.406 237.585H408.993C409.26 237.585 409.524 237.524 409.768 237.405C410.011 237.286 410.228 237.112 410.405 236.895C410.581 236.677 410.713 236.422 410.791 236.145C410.869 235.868 410.892 235.577 410.857 235.29L400.409 144.697C400.351 144.205 400.13 143.753 399.787 143.425C399.444 143.096 399.003 142.913 398.545 142.911H262.958C262.692 142.911 262.429 142.972 262.187 143.09C261.944 143.208 261.728 143.381 261.552 143.596C261.375 143.812 261.243 144.066 261.165 144.341C261.086 144.616 261.062 144.906 261.094 145.192L271.542 235.798C271.598 236.291 271.818 236.745 272.162 237.074C272.505 237.403 272.948 237.585 273.406 237.585V237.585Z" fill="#F5F5F5"/>
<path d="M406.483 232.569L396.706 147.776C396.688 147.637 396.624 147.511 396.526 147.42C396.428 147.329 396.303 147.28 396.174 147.281H265.988C265.914 147.278 265.84 147.293 265.771 147.325C265.702 147.357 265.641 147.404 265.591 147.465C265.542 147.525 265.505 147.597 265.484 147.674C265.462 147.752 265.457 147.833 265.468 147.913L275.245 232.72C275.26 232.857 275.322 232.983 275.418 233.074C275.514 233.166 275.637 233.216 275.765 233.215H405.963C406.037 233.213 406.111 233.195 406.178 233.161C406.246 233.127 406.306 233.078 406.355 233.017C406.404 232.956 406.441 232.885 406.463 232.807C406.485 232.73 406.492 232.649 406.483 232.569Z" fill="#E0E0E0"/>
<path d="M356.929 262.638H325.711V262.212C325.711 261.319 326.038 260.462 326.621 259.831C327.204 259.2 327.994 258.845 328.818 258.845H353.823C354.647 258.845 355.437 259.2 356.019 259.831C356.602 260.462 356.929 261.319 356.929 262.212V262.638Z" fill="#FAFAFA"/>
<path d="M329.35 262.638H308.175V262.212C308.175 261.319 308.502 260.462 309.085 259.831C309.667 259.2 310.457 258.845 311.281 258.845H326.244C327.068 258.845 327.858 259.2 328.44 259.831C329.023 260.462 329.35 261.319 329.35 262.212V262.638Z" fill="#F0F0F0"/>
<path d="M147.671 78.7322V78.6635C147.963 77.6053 148.242 76.5334 148.483 75.4615C148.912 76.2024 149.496 76.8236 150.188 77.2748C150.879 77.726 151.659 77.9945 152.464 78.0588H152.807C154.924 77.839 156.953 75.6126 158.234 72.1082C158.258 72.0452 158.271 71.9774 158.271 71.9089C158.271 71.8405 158.258 71.7727 158.234 71.7097C158.172 71.5842 158.067 71.4903 157.942 71.4486C156.422 71.031 154.838 70.9658 153.293 71.2571C151.749 71.5483 150.278 72.1896 148.977 73.1389C149.168 72.122 149.332 71.0913 149.472 70.0743C149.806 70.1442 150.146 70.181 150.486 70.1842C153.935 70.1842 156.471 66.8447 156.598 66.6798C156.643 66.6193 156.674 66.5482 156.688 66.4723C156.703 66.3964 156.701 66.3178 156.682 66.2429C156.664 66.168 156.629 66.0989 156.582 66.0411C156.534 65.9833 156.474 65.9385 156.408 65.9102C155.607 65.4791 154.73 65.2367 153.836 65.1988C152.943 65.1609 152.052 65.3284 151.222 65.6904C150.336 66.1786 149.62 66.9645 149.18 67.9304C148.534 65.7799 147.353 63.8645 145.767 62.395C144.18 60.9256 142.251 59.9592 140.19 59.6023C140.126 59.5859 140.059 59.5861 139.996 59.6028C139.932 59.6195 139.872 59.6523 139.822 59.6985C139.769 59.739 139.725 59.7924 139.695 59.8544C139.664 59.9165 139.647 59.9854 139.645 60.0558C139.467 63.4503 139.569 67.6143 141.915 69.5933C142.896 70.3775 144.095 70.7751 145.313 70.7202C146.404 70.6917 147.487 70.5069 148.534 70.1705C148.199 72.6265 147.711 75.0553 147.075 77.4404C144.781 74.0516 141.525 71.5706 137.806 70.3766C137.689 70.347 137.565 70.3676 137.461 70.4341C137.357 70.5007 137.281 70.608 137.248 70.7339C136.538 73.6612 136.906 76.0386 138.301 77.6053C139.01 78.2959 139.84 78.8246 140.742 79.1599C141.644 79.4952 142.599 79.6302 143.55 79.5568C144.573 79.5498 145.592 79.4347 146.593 79.2132C146.01 81.2197 145.325 83.1849 144.679 85.0539C143.271 83.6796 139.125 80.2714 134.611 81.7007C134.49 81.7442 134.389 81.8381 134.332 81.9618C134.307 82.0248 134.294 82.0926 134.294 82.161C134.294 82.2295 134.307 82.2973 134.332 82.3603C135.6 85.6036 136.957 87.4039 138.707 88.0223C139.173 88.189 139.661 88.2725 140.152 88.2697C141.492 88.208 142.798 87.7929 143.956 87.0603C142.992 89.5478 141.965 91.8703 140.989 93.9317C139.83 92.6508 138.374 91.7323 136.774 91.2728C135.174 90.8133 133.489 90.8298 131.897 91.3206C131.789 91.3439 131.692 91.4104 131.626 91.5071C131.561 91.6037 131.531 91.7235 131.542 91.8428C131.655 92.8822 132.017 93.8712 132.594 94.7107C133.17 95.5501 133.94 96.2104 134.826 96.6253C135.495 96.937 136.216 97.0961 136.944 97.0925C137.954 97.0788 138.946 96.8006 139.835 96.2817C138.846 98.2744 137.933 99.9373 137.223 101.202H128.601C127.231 98.6592 125.646 95.4984 124.099 91.9528C124.82 92.1859 125.566 92.3108 126.318 92.3238C127.243 92.3363 128.158 92.1178 128.992 91.6853C129.826 91.2528 130.557 90.6179 131.129 89.8299C131.7 89.0419 132.096 88.1218 132.287 87.1411C132.477 86.1603 132.457 85.1452 132.227 84.1744C132.197 84.0616 132.131 83.9645 132.04 83.9012C131.949 83.8379 131.839 83.8129 131.733 83.8308C129.972 84.0169 128.278 84.6598 126.795 85.7051C125.312 86.7505 124.083 88.1675 123.212 89.8364C122.197 87.3627 121.208 84.7378 120.346 82.0305C121.443 82.7073 122.673 83.0934 123.934 83.1574C124.435 83.1636 124.933 83.0752 125.405 82.8963C127.941 81.9893 129.399 78.6773 130.642 75.2416C130.67 75.1795 130.685 75.1114 130.685 75.0423C130.685 74.9732 130.67 74.9051 130.642 74.843C130.613 74.7799 130.572 74.7242 130.522 74.6792C130.471 74.6342 130.413 74.6011 130.35 74.5819C125.278 73.0427 121.107 78.3337 119.813 80.2302C119.137 77.9419 118.574 75.616 118.127 73.2626C119.192 73.4886 120.275 73.6082 121.36 73.6199C122.439 73.7054 123.523 73.5494 124.544 73.1617C125.564 72.774 126.501 72.1628 127.295 71.3661C128.829 69.607 129.197 66.9684 128.372 63.7526C128.358 63.6896 128.331 63.6304 128.295 63.5787C128.259 63.5269 128.213 63.4837 128.161 63.4516C128.109 63.4195 128.051 63.3991 127.992 63.3918C127.932 63.3845 127.872 63.3904 127.814 63.4091C123.768 64.7776 120.246 67.5431 117.785 71.2837L117.594 70.0331C117.581 69.9249 117.537 69.8239 117.468 69.7445C117.258 68.9313 116.894 68.1748 116.398 67.5238C115.903 66.8728 115.286 66.3419 114.589 65.9652C113.674 65.5827 112.695 65.4143 111.716 65.4712C110.737 65.528 109.78 65.8088 108.909 66.295C108.841 66.3264 108.782 66.3735 108.733 66.4329C108.685 66.4923 108.65 66.5626 108.63 66.6386C108.614 66.7132 108.615 66.7908 108.633 66.8649C108.65 66.939 108.684 67.0075 108.731 67.0646C108.858 67.2433 111.647 70.8164 115.401 70.8164C115.805 70.8107 116.208 70.7647 116.605 70.679C116.77 71.8471 116.973 73.0152 117.201 74.1696C115.755 73.1379 114.124 72.4502 112.415 72.1517C110.705 71.8532 108.957 71.9508 107.285 72.438C107.16 72.4798 107.055 72.5737 106.994 72.6992C106.969 72.7645 106.956 72.8345 106.956 72.9053C106.956 72.9761 106.969 73.0461 106.994 73.1114C108.452 76.9319 110.709 79.3507 113.042 79.5568H113.359C114.538 79.5568 116.136 78.9659 117.759 76.6158C118.398 79.2879 119.169 81.9211 120.067 84.5042C117.873 83.3773 112.941 81.4396 109.416 84.3942C109.367 84.4322 109.326 84.4804 109.296 84.5359C109.265 84.5914 109.245 84.6531 109.236 84.7173C109.228 84.7815 109.232 84.8468 109.247 84.9094C109.263 84.9719 109.29 85.0305 109.327 85.0814C111.609 88.4484 113.714 90.0837 115.781 90.0837C117.493 90.0837 119.129 88.9156 120.764 86.6068C121.703 89.1355 122.717 91.5542 123.719 93.7805C121.525 92.3101 119.116 92.5437 116.276 94.4814C116.21 94.5241 116.155 94.5845 116.118 94.6568C116.08 94.729 116.06 94.8107 116.06 94.8937C116.055 94.9746 116.07 95.0555 116.103 95.128C116.137 95.2005 116.187 95.262 116.25 95.306C117.942 96.6275 119.94 97.4127 122.02 97.5735C123.093 97.5966 124.145 97.2502 125.025 96.5841C125.836 98.2744 126.635 99.8273 127.371 101.215H123.452V103.634H124.873L126.052 116.442H143.411L144.577 103.634H146.01V101.215H138.212C139.074 99.6624 140.177 97.5873 141.357 95.1548C141.392 95.1059 141.418 95.0498 141.433 94.9899C141.737 94.3715 142.029 93.7393 142.333 93.0797C142.849 93.9253 143.544 94.6248 144.36 95.1197C145.176 95.6147 146.09 95.8906 147.025 95.9244C147.219 95.9381 147.414 95.9381 147.608 95.9244C148.641 95.7975 149.621 95.3631 150.44 94.6694C151.26 93.9757 151.885 93.0496 152.249 91.994C152.286 91.8855 152.286 91.766 152.249 91.6575C152.212 91.5489 152.14 91.4586 152.046 91.403C150.716 90.5891 149.227 90.1296 147.701 90.0627C146.176 89.9958 144.657 90.3234 143.271 91.0183C143.931 89.5203 144.539 87.9124 145.199 86.2495C145.248 86.1878 145.279 86.1111 145.287 86.0296C145.465 85.5624 145.63 85.0951 145.807 84.6554C147.316 86.7168 148.812 87.7337 150.372 87.7337C152.261 87.7337 154.176 86.222 156.23 83.1024C156.302 82.9982 156.332 82.8677 156.316 82.7392C156.299 82.6106 156.237 82.4943 156.142 82.4153C152.908 79.7904 148.534 81.5907 146.479 82.6352C146.898 81.3983 147.278 80.1477 147.633 78.8697L147.671 78.7322Z" fill="#E0E0E0"/>
<path d="M510.332 72.9328H445.486V150.098H510.332V72.9328Z" fill="#E0E0E0"/>
<path d="M502.331 76.0936C502.277 76.1076 502.22 76.1076 502.166 76.0936C502.014 75.9837 486.696 66.1164 481.878 66.1164C477.06 66.1164 462.414 75.9837 462.262 76.0799C462.227 76.1047 462.189 76.1215 462.148 76.1294C462.107 76.1373 462.065 76.136 462.025 76.1258C461.984 76.1155 461.946 76.0963 461.913 76.0695C461.88 76.0427 461.852 76.0088 461.831 75.9699C461.788 75.8931 461.775 75.8012 461.794 75.7139C461.813 75.6266 461.863 75.5508 461.932 75.5027C462.541 75.0904 476.831 65.4292 481.878 65.4292C486.925 65.4292 501.912 75.0492 502.546 75.5027C502.582 75.5252 502.614 75.5554 502.638 75.5915C502.663 75.6276 502.681 75.6688 502.69 75.7126C502.7 75.7563 502.701 75.8017 502.694 75.846C502.686 75.8902 502.671 75.9324 502.648 75.9699C502.612 76.0221 502.563 76.0617 502.507 76.0837C502.45 76.1057 502.389 76.1091 502.331 76.0936Z" fill="#EBEBEB"/>
<path d="M517.344 72.9328H450.368V150.098H517.344V72.9328Z" fill="#F5F5F5"/>
<path d="M511.74 144.01V79.0071H455.986V144.01H511.74Z" fill="white"/>
<path d="M494.661 123.219C500.628 116.752 500.628 106.267 494.661 99.7999C488.694 93.3328 479.019 93.3328 473.052 99.7999C467.085 106.267 467.085 116.752 473.052 123.219C479.019 129.686 488.694 129.686 494.661 123.219Z" fill="#E0E0E0"/>
<path d="M482.563 356.281H539.395C544.609 356.286 549.617 354.073 553.342 350.118C557.067 346.163 559.212 340.781 559.315 335.131L561.445 222.358C561.484 220.265 561.137 218.185 560.425 216.239C559.713 214.293 558.649 212.521 557.297 211.026C555.945 209.531 554.331 208.344 552.551 207.534C550.77 206.723 548.858 206.306 546.926 206.306H511.296C507.731 206.305 504.291 207.727 501.632 210.3C498.972 212.872 497.28 216.416 496.878 220.255L482.563 356.281Z" fill="#E6E6E6"/>
<path d="M513.578 356.281H453.018C452.265 356.281 451.543 355.957 451.01 355.379C450.477 354.802 450.178 354.019 450.178 353.202V352.914C450.178 350.676 450.998 348.53 452.458 346.947C453.918 345.365 455.899 344.476 457.964 344.476H513.578V356.281Z" fill="#E6E6E6"/>
<path d="M508.798 451.477C508.503 451.484 508.215 451.38 507.983 451.181C507.752 450.983 507.592 450.704 507.53 450.391L489.778 357.655H458.838L441.086 450.391C441.018 450.756 440.818 451.076 440.531 451.28C440.245 451.485 439.895 451.558 439.559 451.484C439.222 451.409 438.927 451.193 438.738 450.882C438.549 450.572 438.482 450.192 438.55 449.828L456.531 356.006C456.59 355.691 456.749 355.408 456.981 355.207C457.213 355.007 457.502 354.9 457.799 354.907H490.767C491.063 354.9 491.353 355.007 491.584 355.207C491.816 355.408 491.975 355.691 492.035 356.006L510.002 449.828C510.07 450.183 510.005 450.553 509.822 450.857C509.639 451.16 509.353 451.373 509.026 451.449C508.951 451.469 508.875 451.478 508.798 451.477V451.477Z" fill="#E6E6E6"/>
<path d="M489.511 451.477C489.427 451.49 489.342 451.49 489.258 451.477C489.095 451.441 488.94 451.37 488.802 451.269C488.663 451.168 488.545 451.039 488.453 450.888C488.362 450.738 488.298 450.569 488.266 450.392C488.235 450.214 488.235 450.032 488.269 449.855L506.249 356.033C506.308 355.718 506.468 355.436 506.699 355.235C506.931 355.034 507.22 354.928 507.517 354.934H540.485C540.782 354.928 541.071 355.034 541.303 355.235C541.534 355.436 541.694 355.718 541.753 356.033L559.721 449.855C559.755 450.036 559.756 450.222 559.724 450.403C559.691 450.583 559.627 450.756 559.533 450.91C559.439 451.063 559.319 451.196 559.178 451.299C559.037 451.402 558.879 451.474 558.713 451.511C558.546 451.548 558.374 451.549 558.208 451.514C558.041 451.48 557.882 451.409 557.74 451.308C557.598 451.206 557.476 451.076 557.381 450.923C557.285 450.771 557.219 450.599 557.185 450.419L539.433 357.683H508.468L490.716 450.419C490.652 450.715 490.498 450.979 490.28 451.171C490.062 451.362 489.792 451.47 489.511 451.477Z" fill="#E6E6E6"/>
<path d="M317 512C452.781 512 562.853 505.035 562.853 496.443C562.853 487.851 452.781 480.886 317 480.886C181.219 480.886 71.1475 487.851 71.1475 496.443C71.1475 505.035 181.219 512 317 512Z" fill="#F5F5F5"/>
<path d="M338.695 483.745C338.298 483.744 337.913 483.594 337.606 483.321C337.299 483.049 337.088 482.669 337.009 482.247L312.917 353.67H270.959L246.867 482.247C246.752 482.705 246.481 483.099 246.108 483.348C245.735 483.597 245.289 483.683 244.86 483.589C244.43 483.494 244.05 483.226 243.797 482.839C243.543 482.452 243.435 481.975 243.494 481.505L267.865 351.43C267.946 351.009 268.158 350.631 268.464 350.358C268.771 350.086 269.155 349.935 269.551 349.932H314.312C314.709 349.933 315.094 350.082 315.401 350.355C315.709 350.628 315.919 351.008 315.998 351.43L340.382 481.505C340.472 481.989 340.381 482.493 340.129 482.905C339.877 483.317 339.485 483.604 339.038 483.704L338.695 483.745Z" fill="#407BFF"/>
<path d="M271.352 483.745C270.955 483.741 270.572 483.591 270.265 483.318C269.958 483.046 269.747 482.668 269.666 482.247L245.574 353.67H203.615L179.523 482.247C179.492 482.5 179.412 482.744 179.29 482.963C179.168 483.181 179.006 483.371 178.813 483.519C178.621 483.667 178.403 483.77 178.172 483.823C177.941 483.876 177.703 483.877 177.472 483.826C177.24 483.776 177.021 483.674 176.828 483.528C176.634 483.381 176.471 483.194 176.347 482.976C176.223 482.758 176.142 482.515 176.108 482.262C176.074 482.009 176.089 481.752 176.151 481.505L200.534 351.43C200.613 351.008 200.824 350.628 201.131 350.355C201.439 350.082 201.823 349.933 202.221 349.932H246.981C247.377 349.933 247.76 350.083 248.065 350.356C248.37 350.63 248.579 351.009 248.655 351.43L273.038 481.505C273.128 481.989 273.037 482.493 272.785 482.905C272.533 483.317 272.141 483.604 271.694 483.704L271.352 483.745Z" fill="#407BFF"/>
<path d="M280.773 351.814H203.679C196.603 351.816 189.808 348.81 184.753 343.443C179.699 338.075 176.788 330.774 176.645 323.106L173.779 196.123C173.725 193.284 174.194 190.463 175.159 187.823C176.124 185.184 177.565 182.78 179.397 180.751C181.23 178.723 183.417 177.111 185.832 176.01C188.246 174.909 190.839 174.342 193.459 174.341H241.795C246.632 174.344 251.3 176.276 254.908 179.768C258.516 183.26 260.812 188.069 261.36 193.278L280.773 351.814Z" fill="#407BFF"/>
<path d="M238.726 335.735H314.172C316.974 335.735 319.66 336.942 321.641 339.088C323.622 341.235 324.735 344.147 324.735 347.183V347.582C324.735 348.675 324.334 349.724 323.621 350.497C322.907 351.27 321.94 351.705 320.931 351.705H238.726V335.735Z" fill="#407BFF"/>
<g opacity="0.3">
<path d="M338.695 483.745C338.298 483.744 337.913 483.594 337.606 483.321C337.299 483.049 337.088 482.669 337.009 482.247L312.917 353.67H270.959L246.867 482.247C246.752 482.705 246.481 483.099 246.108 483.348C245.735 483.597 245.289 483.683 244.86 483.589C244.43 483.494 244.05 483.226 243.797 482.839C243.543 482.452 243.435 481.975 243.494 481.505L267.865 351.43C267.946 351.009 268.158 350.631 268.464 350.358C268.771 350.086 269.155 349.935 269.551 349.932H314.312C314.709 349.933 315.094 350.082 315.401 350.355C315.709 350.628 315.919 351.008 315.998 351.43L340.382 481.505C340.472 481.989 340.381 482.493 340.129 482.905C339.877 483.317 339.485 483.604 339.038 483.704L338.695 483.745Z" fill="black"/>
<path d="M271.352 483.745C270.955 483.741 270.572 483.591 270.265 483.318C269.958 483.046 269.747 482.668 269.666 482.247L245.574 353.67H203.615L179.523 482.247C179.492 482.5 179.412 482.744 179.29 482.963C179.168 483.181 179.006 483.371 178.813 483.519C178.621 483.667 178.403 483.77 178.172 483.823C177.941 483.876 177.703 483.877 177.472 483.826C177.24 483.776 177.021 483.674 176.828 483.528C176.634 483.381 176.471 483.194 176.347 482.976C176.223 482.758 176.142 482.515 176.108 482.262C176.074 482.009 176.089 481.752 176.151 481.505L200.534 351.43C200.613 351.008 200.824 350.628 201.131 350.355C201.439 350.082 201.823 349.933 202.221 349.932H246.981C247.377 349.933 247.76 350.083 248.065 350.356C248.37 350.63 248.579 351.009 248.655 351.43L273.038 481.505C273.128 481.989 273.037 482.493 272.785 482.905C272.533 483.317 272.141 483.604 271.694 483.704L271.352 483.745Z" fill="black"/>
<path d="M280.773 351.814H203.679C196.603 351.816 189.808 348.81 184.753 343.443C179.699 338.075 176.788 330.774 176.645 323.106L173.779 196.123C173.725 193.284 174.194 190.463 175.159 187.823C176.124 185.184 177.565 182.78 179.397 180.751C181.23 178.723 183.417 177.111 185.832 176.01C188.246 174.909 190.839 174.342 193.459 174.341H241.795C246.632 174.344 251.3 176.276 254.908 179.768C258.516 183.26 260.812 188.069 261.36 193.278L280.773 351.814Z" fill="black"/>
<path d="M238.726 335.735H314.172C316.974 335.735 319.66 336.942 321.641 339.088C323.622 341.235 324.735 344.147 324.735 347.183V347.582C324.735 348.675 324.334 349.724 323.621 350.497C322.907 351.27 321.94 351.705 320.931 351.705H238.726V335.735Z" fill="black"/>
</g>
<path d="M259.319 167.332C259.319 167.332 270.097 182.586 263.123 212.958C256.149 243.329 220.163 226.838 217.982 199.462C215.446 167.194 248.87 189.444 254.754 160.749L259.319 167.332Z" fill="#263238"/>
<path d="M251.495 158.275C246.816 161.848 244.965 167.043 250.138 172.128C255.312 177.213 262.692 177.048 264.923 174.959C267.155 172.87 266.711 162.261 266.711 162.261L251.495 158.275Z" fill="#407BFF"/>
<path opacity="0.8" d="M251.495 158.275C246.816 161.848 244.965 167.043 250.138 172.128C255.312 177.213 262.692 177.048 264.923 174.959C267.155 172.87 266.711 162.261 266.711 162.261L251.495 158.275Z" fill="white"/>
<path d="M310.584 225.876C310.711 226.494 310.926 227.456 311.129 228.267L311.738 230.851C312.169 232.582 312.638 234.314 313.133 236.046C314.071 239.536 315.111 243.013 316.201 246.49C317.292 249.967 318.407 253.361 319.625 256.88C320.221 258.597 320.817 260.329 321.451 262.047L322.186 264.108C322.333 264.461 322.525 264.789 322.757 265.084C324.562 267.063 326.761 268.567 329.185 269.482C332.147 270.773 335.2 271.803 338.315 272.56C341.536 273.371 344.845 274.044 348.193 274.608C351.54 275.171 354.977 275.625 358.273 275.982L358.388 283.376C351.154 284.186 343.862 284.186 336.629 283.376C332.848 282.953 329.11 282.167 325.458 281.026C323.48 280.378 321.554 279.556 319.701 278.566C317.567 277.442 315.615 275.952 313.919 274.154C312.934 273.092 312.082 271.896 311.383 270.595C311.193 270.265 311.028 269.894 310.85 269.55L310.521 268.808L309.937 267.434C309.151 265.689 308.365 263.943 307.642 262.17C306.171 258.625 304.738 255.052 303.458 251.41C302.177 247.768 300.922 244.099 299.857 240.416C299.337 238.519 298.83 236.636 298.36 234.699L297.663 231.799C297.46 230.755 297.27 229.889 297.067 228.652L310.584 225.876Z" fill="#E58A7B"/>
<path d="M306.273 210.264C311.712 211.762 315.504 236.004 315.504 236.004L300.529 246.998C300.529 246.998 286.162 222.536 290.385 216.064C294.709 209.412 298.335 208.12 306.273 210.264Z" fill="#407BFF"/>
<path opacity="0.5" d="M306.273 210.264C311.712 211.762 315.504 236.004 315.504 236.004L300.529 246.998C300.529 246.998 286.162 222.536 290.385 216.064C294.709 209.412 298.335 208.12 306.273 210.264Z" fill="white"/>
<path opacity="0.2" d="M304.32 216.366L291.298 227.553C293.834 234.348 296.918 240.887 300.516 247.095L310.901 239.44L304.32 216.366Z" fill="#407BFF"/>
<path d="M306.273 210.264C306.273 210.264 312.613 212.655 299.933 296.527H246.398C247.298 272.904 247.323 258.336 236.913 209.838C244.41 208.165 252.008 207.081 259.648 206.595C267.749 205.969 275.881 205.969 283.981 206.595C294.43 207.68 306.273 210.264 306.273 210.264Z" fill="#407BFF"/>
<path opacity="0.5" d="M306.273 210.264C306.273 210.264 312.613 212.655 299.933 296.527H246.398C247.298 272.904 247.323 258.336 236.913 209.838C244.41 208.165 252.008 207.081 259.648 206.595C267.749 205.969 275.881 205.969 283.981 206.595C294.43 207.68 306.273 210.264 306.273 210.264Z" fill="white"/>
<path d="M356.308 275.913L365.653 265.634L366.921 280.118C366.921 280.118 359.909 285.258 355.065 282.496L356.308 275.913Z" fill="#E58A7B"/>
<path d="M376.685 264.108L377.103 276.284L366.908 280.119L365.679 265.634L376.685 264.108Z" fill="#E58A7B"/>
<path d="M360.695 470.414H373.882L375.911 437.308H362.724L360.695 470.414Z" fill="#E58A7B"/>
<path d="M309.658 470.414H322.845L327.081 437.308H313.893L309.658 470.414Z" fill="#E58A7B"/>
<path d="M323.67 468.752H308.847C308.591 468.746 308.343 468.842 308.149 469.022C307.955 469.202 307.829 469.453 307.794 469.727L306.108 482.439C306.078 482.76 306.11 483.085 306.203 483.391C306.295 483.698 306.446 483.98 306.646 484.22C306.845 484.46 307.089 484.651 307.361 484.782C307.633 484.914 307.928 484.981 308.225 484.982C313.386 484.886 315.833 484.556 322.389 484.556C326.396 484.556 336.679 485.009 342.221 485.009C347.762 485.009 348.053 479.072 345.746 478.536C335.411 476.118 329.35 472.806 325.863 469.631C325.252 469.065 324.474 468.753 323.67 468.752Z" fill="#263238"/>
<path d="M374.91 468.752H360.112C359.857 468.749 359.61 468.846 359.417 469.025C359.223 469.205 359.096 469.454 359.06 469.727L357.373 482.439C357.343 482.76 357.375 483.085 357.468 483.391C357.561 483.698 357.712 483.98 357.911 484.22C358.111 484.46 358.354 484.651 358.626 484.782C358.898 484.914 359.193 484.981 359.491 484.982C364.651 484.886 367.099 484.556 373.654 484.556C377.674 484.556 385.954 485.009 391.495 485.009C397.036 485.009 397.328 479.072 395.02 478.536C384.686 476.118 380.616 472.806 377.141 469.631C376.517 469.06 375.726 468.748 374.91 468.752V468.752Z" fill="#263238"/>
<path d="M295.761 148.037C300.503 148.367 302.913 174.148 289.003 172.65C275.093 171.152 295.761 148.037 295.761 148.037Z" fill="#263238"/>
<path d="M375.911 437.308L374.859 454.377H361.672L362.711 437.308H375.911Z" fill="#CF6F64"/>
<path d="M313.893 437.308H327.093L324.9 454.377H311.7L313.893 437.308Z" fill="#CF6F64"/>
<path opacity="0.2" d="M242.264 236.801C243.532 243.838 244.432 249.912 245.117 255.382L248.249 229.119L242.264 236.801Z" fill="#407BFF"/>
<path d="M262.058 176.965C263.592 185.445 265.126 200.988 259.648 206.65C259.648 206.65 261.791 215.253 276.335 215.253C292.325 215.253 283.943 206.65 283.943 206.65C275.207 204.396 275.435 197.373 276.957 190.791L262.058 176.965Z" fill="#E58A7B"/>
<path d="M273.444 217.094L278.313 215.198L277.667 213.755L273.444 217.094Z" fill="#263238"/>
<path d="M282.891 215.995L278.313 215.198L279.302 213.59L282.891 215.995Z" fill="#263238"/>
<path d="M261.424 202.651L258.114 206.141C258.015 206.252 257.959 206.4 257.959 206.554C257.959 206.708 258.015 206.856 258.114 206.966L272.062 224.186C272.725 220.096 274.746 216.41 277.743 213.823C266.204 209.096 263.199 204.204 262.172 202.829C262.148 202.749 262.105 202.678 262.048 202.621C261.991 202.565 261.921 202.526 261.845 202.507C261.769 202.489 261.691 202.493 261.617 202.518C261.543 202.543 261.476 202.589 261.424 202.651V202.651Z" fill="#407BFF"/>
<path d="M281.357 205.289L285.465 206.499C285.588 206.536 285.699 206.607 285.788 206.706C285.878 206.805 285.941 206.928 285.972 207.062C287.133 212.71 286.914 218.588 285.338 224.117C284.755 221.781 282.802 216.187 279.302 213.59C283.106 210.745 281.572 207.076 281.027 205.688C281.009 205.636 281.005 205.58 281.014 205.526C281.024 205.472 281.047 205.422 281.081 205.381C281.115 205.34 281.158 205.309 281.207 205.293C281.255 205.277 281.307 205.276 281.357 205.289Z" fill="#407BFF"/>
<path d="M268.157 182.6L277.033 190.777C276.664 192.309 276.414 193.872 276.285 195.449C272.95 194.927 268.372 190.969 268.017 187.204C267.8 185.673 267.847 184.112 268.157 182.6V182.6Z" fill="#CF6F64"/>
<path d="M261.208 154.62C259.699 168.706 258.773 174.643 264.099 183.053C272.087 195.711 288.394 194.639 293.758 181.322C298.589 169.338 300.237 148.339 288.571 140.314C286.005 138.538 283.063 137.504 280.024 137.308C276.985 137.112 273.95 137.762 271.208 139.196C268.467 140.629 266.108 142.799 264.358 145.499C262.608 148.198 261.523 151.338 261.208 154.62V154.62Z" fill="#E58A7B"/>
<path d="M290.93 131.353C269.437 122.159 253.296 132.535 249.961 147.281C244.724 170.177 261.449 171.784 261.449 171.784L263.541 165.93C266.546 167.895 274.953 167.029 272.417 150.03C270.921 140.41 282.155 153.809 296.408 152.311C300.199 151.912 305.385 137.537 290.93 131.353Z" fill="#263238"/>
<path d="M298.246 137.015C295.419 132.301 289.637 128.261 277.654 126.351C277.654 126.351 283.88 127.876 285.896 132.81C287.912 137.744 301.657 142.691 298.246 137.015Z" fill="#263238"/>
<path d="M257.074 166.81C256.987 168.164 257.146 169.524 257.545 170.812C257.943 172.1 258.572 173.289 259.395 174.313C261.614 177.062 264.53 175.371 265.443 172.073C266.255 169.091 266.09 164.088 263.123 162.577C260.156 161.065 257.315 163.456 257.074 166.81Z" fill="#E58A7B"/>
<path d="M299.971 296.582C299.971 296.582 388.401 305.501 387.539 349.08C386.639 394.431 377.686 451.078 377.686 451.078H359.415C359.415 451.078 357.855 403.144 357.322 358.493C357.056 335.241 271.606 330.582 271.606 330.582L260.574 296.582H299.971Z" fill="#263238"/>
<path d="M285.82 296.582C285.82 296.582 342.969 317.128 344.414 342.552C347.064 389.36 328.082 451.12 328.082 451.12H310.089C310.089 451.12 311.117 410.166 313.259 367.756C315.973 314.462 229.216 367.014 246.398 296.624L285.82 296.582Z" fill="#263238"/>
<path d="M280.012 162.302C279.822 163.429 280.228 164.46 280.913 164.597C281.597 164.734 282.295 163.91 282.485 162.783C282.675 161.656 282.269 160.612 281.585 160.488C280.9 160.364 280.228 161.161 280.012 162.302Z" fill="#263238"/>
<path d="M291.843 164.597C291.653 165.724 292.058 166.755 292.743 166.892C293.428 167.029 294.138 166.205 294.328 165.078C294.518 163.951 294.113 162.907 293.428 162.783C292.743 162.659 292.033 163.456 291.843 164.597Z" fill="#263238"/>
<path d="M293.111 162.783L295.761 162.481C295.761 162.481 294.176 164.363 293.111 162.783Z" fill="#263238"/>
<path d="M288.394 165.93C288.901 168.699 289.755 171.381 290.93 173.901C290.333 174.195 289.684 174.348 289.028 174.348C288.372 174.348 287.723 174.195 287.126 173.901L288.394 165.93Z" fill="#DF5753"/>
<path d="M282.764 177.57C281.373 177.331 280.053 176.74 278.912 175.844C277.77 174.949 276.84 173.775 276.196 172.417C276.174 172.364 276.173 172.304 276.192 172.25C276.211 172.196 276.249 172.152 276.297 172.128C276.348 172.109 276.403 172.111 276.452 172.134C276.502 172.157 276.541 172.199 276.563 172.252C277.173 173.535 278.051 174.646 279.128 175.495C280.205 176.345 281.45 176.91 282.764 177.144C282.817 177.157 282.863 177.191 282.893 177.24C282.924 177.288 282.937 177.347 282.929 177.405C282.919 177.447 282.899 177.485 282.869 177.515C282.84 177.544 282.803 177.563 282.764 177.57V177.57Z" fill="#263238"/>
<path d="M277.236 157.231C277.181 157.233 277.126 157.222 277.075 157.198C277.025 157.174 276.98 157.138 276.944 157.093C276.905 157.055 276.875 157.008 276.854 156.956C276.833 156.904 276.822 156.848 276.822 156.791C276.822 156.734 276.833 156.678 276.854 156.626C276.875 156.574 276.905 156.527 276.944 156.489C277.627 155.765 278.46 155.231 279.374 154.929C280.287 154.628 281.254 154.569 282.193 154.757C282.293 154.789 282.377 154.861 282.429 154.958C282.48 155.055 282.496 155.17 282.472 155.279C282.461 155.335 282.439 155.387 282.408 155.433C282.377 155.479 282.338 155.518 282.293 155.548C282.248 155.577 282.198 155.596 282.146 155.605C282.094 155.613 282.041 155.61 281.991 155.595C281.18 155.44 280.348 155.498 279.562 155.763C278.777 156.029 278.062 156.494 277.476 157.121C277.409 157.184 277.324 157.222 277.236 157.231Z" fill="#263238"/>
<path d="M298.31 159.485C298.231 159.488 298.153 159.464 298.087 159.417C298.022 159.371 297.971 159.303 297.942 159.224C297.632 158.399 297.147 157.665 296.525 157.082C295.904 156.499 295.164 156.084 294.366 155.87C294.263 155.85 294.171 155.787 294.109 155.695C294.048 155.603 294.022 155.488 294.037 155.376C294.055 155.261 294.115 155.159 294.203 155.092C294.291 155.025 294.4 154.998 294.506 155.018C295.435 155.251 296.298 155.724 297.022 156.397C297.746 157.069 298.31 157.921 298.665 158.88C298.708 158.986 298.71 159.106 298.673 159.214C298.635 159.322 298.559 159.409 298.462 159.457L298.31 159.485Z" fill="#263238"/>
<path d="M244.914 230.576C243.76 234.699 242.518 238.822 241.415 243.054C240.311 247.287 239.145 251.41 238.143 255.601C237.141 259.793 236.19 263.943 235.48 267.97C235.138 270.004 234.821 272.024 234.643 273.921C234.542 274.869 234.491 275.762 234.479 276.587C234.479 276.779 234.479 276.587 234.352 276.271C234.197 275.898 233.982 275.558 233.718 275.267C233.071 274.663 232.83 274.773 233.122 274.869C233.653 275.009 234.199 275.069 234.745 275.047C236.452 274.984 238.15 274.749 239.817 274.347C243.594 273.445 247.316 272.293 250.963 270.897C258.456 268.149 266.064 264.795 273.47 261.373L276.741 267.846C269.716 272.838 262.372 277.283 254.767 281.149C250.828 283.163 246.765 284.875 242.606 286.275C240.291 287.04 237.913 287.56 235.506 287.828C234.002 287.995 232.485 287.954 230.992 287.705C230 287.544 229.033 287.243 228.113 286.811C226.925 286.254 225.848 285.451 224.943 284.448C223.185 282.439 222.177 279.794 222.116 277.026C222.052 275.652 222.039 274.278 222.116 273.041C222.204 270.499 222.42 268.094 222.712 265.744C223.32 261.044 224.106 256.508 225.07 252.001C226.034 247.493 227.061 243.137 228.189 238.767C229.318 234.396 230.535 230.109 231.993 225.738L244.914 230.576Z" fill="#E58A7B"/>
<path d="M328.184 471.157C327.015 471.125 325.854 470.95 324.722 470.634C324.68 470.626 324.641 470.603 324.61 470.57C324.58 470.537 324.559 470.495 324.551 470.449C324.543 470.403 324.547 470.356 324.564 470.313C324.581 470.27 324.61 470.234 324.646 470.208C325.09 469.892 329.046 467.116 330.555 467.844C330.713 467.922 330.849 468.045 330.947 468.2C331.045 468.355 331.103 468.536 331.113 468.724C331.176 469.029 331.165 469.346 331.08 469.645C330.996 469.944 330.841 470.214 330.631 470.428C329.92 470.976 329.053 471.234 328.184 471.157ZM325.331 470.304C327.778 470.854 329.617 470.785 330.327 470.071C330.481 469.908 330.595 469.705 330.657 469.482C330.719 469.258 330.728 469.021 330.682 468.793C330.677 468.685 330.645 468.58 330.589 468.49C330.533 468.401 330.455 468.329 330.365 468.284C329.401 467.817 326.726 469.37 325.331 470.304V470.304Z" fill="#407BFF"/>
<path d="M324.773 470.648H324.659C324.623 470.626 324.594 470.594 324.574 470.555C324.554 470.516 324.544 470.473 324.545 470.428C324.545 470.263 324.545 466.195 325.965 464.849C326.131 464.676 326.332 464.547 326.552 464.473C326.772 464.399 327.005 464.382 327.233 464.423C327.461 464.421 327.683 464.504 327.861 464.66C328.039 464.815 328.162 465.032 328.209 465.275C328.475 466.759 326.269 469.796 324.887 470.648H324.773ZM327.005 464.849C326.725 464.851 326.458 464.969 326.256 465.178C325.255 466.14 325.052 468.861 324.988 469.947C326.256 468.958 327.956 466.457 327.74 465.343C327.74 465.165 327.613 464.931 327.157 464.862L327.005 464.849Z" fill="#407BFF"/>
<path d="M379.867 471.157C378.474 471.123 377.086 470.953 375.721 470.648C375.676 470.636 375.636 470.61 375.604 470.573C375.573 470.537 375.552 470.491 375.544 470.442C375.537 470.391 375.546 470.34 375.568 470.295C375.591 470.25 375.627 470.215 375.67 470.195C376.254 469.865 381.465 466.979 383.05 467.913C383.188 467.996 383.304 468.115 383.388 468.259C383.473 468.403 383.522 468.568 383.532 468.738C383.568 469.024 383.538 469.316 383.445 469.586C383.352 469.857 383.199 470.099 382.999 470.291C382.077 470.958 380.972 471.264 379.867 471.157ZM376.457 470.304C378.156 470.621 381.529 471.074 382.695 469.947C382.841 469.8 382.952 469.617 383.02 469.414C383.089 469.211 383.112 468.993 383.088 468.779C383.087 468.686 383.063 468.595 383.018 468.515C382.974 468.435 382.91 468.37 382.835 468.326C381.795 467.721 378.295 469.329 376.457 470.304V470.304Z" fill="#407BFF"/>
<path d="M375.772 470.648C375.73 470.662 375.686 470.662 375.645 470.648C375.614 470.622 375.589 470.588 375.572 470.55C375.554 470.512 375.545 470.471 375.544 470.428C375.544 470.263 375.861 466.456 377.484 464.931C377.711 464.721 377.976 464.564 378.261 464.469C378.547 464.375 378.848 464.345 379.145 464.381C379.956 464.464 380.184 464.904 380.248 465.247C380.476 466.828 377.408 469.851 375.861 470.607L375.772 470.648ZM378.904 464.849C378.487 464.847 378.085 465.013 377.775 465.316C376.583 466.388 376.165 468.958 376.038 469.988C377.699 468.985 379.969 466.401 379.842 465.343C379.842 465.233 379.842 464.931 379.145 464.862L378.904 464.849Z" fill="#407BFF"/>
<path d="M273.165 261.593L285.668 258.158L279.708 271.172C279.708 271.172 271.251 271.571 268.461 266.458L273.165 261.593Z" fill="#E58A7B"/>
<path d="M295.774 263.091L290.245 273.701L279.708 271.172L285.668 258.158L295.774 263.091Z" fill="#E58A7B"/>
<path d="M281.268 160.488L283.918 160.186C283.918 160.186 282.282 162.068 281.268 160.488Z" fill="#263238"/>
<path d="M245.599 293.174L245.168 298.369C244.99 298.781 245.421 299.193 246.043 299.193H300.237C300.719 299.193 301.112 298.932 301.15 298.603L301.632 293.408C301.632 293.05 301.239 292.748 300.719 292.748H246.474C246.307 292.733 246.139 292.764 245.986 292.838C245.832 292.913 245.699 293.029 245.599 293.174V293.174Z" fill="#407BFF"/>
<path d="M252.89 299.757H251.432C251.14 299.757 250.924 299.592 250.937 299.4L251.622 292.638C251.622 292.446 251.901 292.281 252.193 292.281H253.6C253.892 292.281 254.107 292.446 254.095 292.638L253.41 299.4C253.422 299.592 253.169 299.757 252.89 299.757Z" fill="#263238"/>
<path d="M296.154 299.757H294.696C294.404 299.757 294.189 299.592 294.201 299.4L294.886 292.638C294.886 292.446 295.165 292.281 295.457 292.281H296.902C297.194 292.281 297.409 292.446 297.397 292.638L296.712 299.4C296.712 299.592 296.433 299.757 296.154 299.757Z" fill="#263238"/>
<path d="M274.522 299.757H273.064C272.772 299.757 272.557 299.592 272.569 299.4L273.254 292.638C273.254 292.446 273.533 292.281 273.825 292.281H275.27C275.562 292.281 275.777 292.446 275.765 292.638L275.08 299.4C275.055 299.592 274.814 299.757 274.522 299.757Z" fill="#263238"/>
<path d="M236.913 209.893C231.537 211.666 225.095 231.689 225.095 231.689L242.404 250.008C242.404 250.008 253.511 231.112 251.28 223.595C248.908 215.761 243.038 207.887 236.913 209.893Z" fill="#407BFF"/>
<path opacity="0.5" d="M236.913 209.893C231.537 211.666 225.095 231.689 225.095 231.689L242.404 250.008C242.404 250.008 253.511 231.112 251.28 223.595C248.908 215.761 243.038 207.887 236.913 209.893Z" fill="white"/>
<path d="M524.521 282.304H423.639V494.973H524.521V282.304Z" fill="#407BFF"/>
<path opacity="0.6" d="M524.521 282.304H423.639V494.973H524.521V282.304Z" fill="white"/>
<path d="M329.084 282.304H228.202V494.973H329.084V282.304Z" fill="#407BFF"/>
<path opacity="0.6" d="M329.084 282.304H228.202V494.973H329.084V282.304Z" fill="white"/>
<path d="M528.3 282.304H519.981V494.973H528.3V282.304Z" fill="#407BFF"/>
<path opacity="0.3" d="M528.3 282.304H519.981V494.973H528.3V282.304Z" fill="black"/>
<path d="M330.289 298.259H530.874V282.304H330.289V298.259Z" fill="#407BFF"/>
<path opacity="0.3" d="M330.289 298.259H530.874V282.304H330.289V298.259Z" fill="black"/>
<path d="M332.875 282.304H324.557V494.973H332.875V282.304Z" fill="#407BFF"/>
<path opacity="0.3" d="M332.875 282.304H324.557V494.973H332.875V282.304Z" fill="black"/>
<path d="M329.807 333.179H524.141V287.237H329.807V333.179Z" fill="#407BFF"/>
<path opacity="0.3" d="M329.807 333.179H524.141V287.237H329.807V333.179Z" fill="black"/>
<path d="M524.572 501.157H468.564C464.762 501.153 461.116 499.515 458.427 496.601C455.738 493.686 454.226 489.735 454.223 485.614V294.095C454.223 290.45 452.887 286.955 450.509 284.377C448.131 281.8 444.906 280.352 441.543 280.352H424.78V278.978H441.53C445.23 278.978 448.777 280.571 451.393 283.406C454.009 286.241 455.478 290.086 455.478 294.095V485.614C455.482 489.371 456.86 492.972 459.311 495.629C461.762 498.285 465.085 499.779 468.551 499.783H524.572C525.525 499.785 526.455 499.46 527.228 498.856C528.001 498.252 528.579 497.398 528.878 496.417C529.177 495.436 529.183 494.378 528.895 493.393C528.607 492.408 528.039 491.547 527.272 490.932L528.021 489.833C528.999 490.62 529.724 491.721 530.092 492.98C530.46 494.239 530.452 495.591 530.07 496.845C529.688 498.099 528.951 499.191 527.964 499.965C526.977 500.739 525.79 501.156 524.572 501.157Z" fill="#407BFF"/>
<path opacity="0.3" d="M524.572 501.157H468.564C464.762 501.153 461.116 499.515 458.427 496.601C455.738 493.686 454.226 489.735 454.223 485.614V294.095C454.223 290.45 452.887 286.955 450.509 284.377C448.131 281.8 444.906 280.352 441.543 280.352H424.78V278.978H441.53C445.23 278.978 448.777 280.571 451.393 283.406C454.009 286.241 455.478 290.086 455.478 294.095V485.614C455.482 489.371 456.86 492.972 459.311 495.629C461.762 498.285 465.085 499.779 468.551 499.783H524.572C525.525 499.785 526.455 499.46 527.228 498.856C528.001 498.252 528.579 497.398 528.878 496.417C529.177 495.436 529.183 494.378 528.895 493.393C528.607 492.408 528.039 491.547 527.272 490.932L528.021 489.833C528.999 490.62 529.724 491.721 530.092 492.98C530.46 494.239 530.452 495.591 530.07 496.845C529.688 498.099 528.951 499.191 527.964 499.965C526.977 500.739 525.79 501.156 524.572 501.157Z" fill="black"/>
<path d="M532.738 345.053H531.47V371.618H532.738V345.053Z" fill="#407BFF"/>
<path opacity="0.3" d="M532.738 345.053H531.47V371.618H532.738V345.053Z" fill="black"/>
<path d="M532.738 329.373H531.47V336.354H532.738V329.373Z" fill="#407BFF"/>
<path opacity="0.3" d="M532.738 329.373H531.47V336.354H532.738V329.373Z" fill="black"/>
<path d="M439.869 218.812H345.86L332.241 278.978H426.238L439.869 218.812Z" fill="#407BFF"/>
<path opacity="0.4" d="M439.869 218.812H345.86L332.241 278.978H426.238L439.869 218.812Z" fill="white"/>
<path d="M335.12 278.978L334.739 282.304H297.853L298.234 278.978H335.12Z" fill="#407BFF"/>
<path opacity="0.4" d="M335.12 278.978L334.739 282.304H297.853L298.234 278.978H335.12Z" fill="white"/>
<path d="M429.129 278.978L428.749 282.304H334.739L335.12 278.978H429.129Z" fill="#407BFF"/>
<path opacity="0.5" d="M429.129 278.978L428.749 282.304H334.739L335.12 278.978H429.129Z" fill="black"/>
<path d="M442.76 218.812H348.751L335.132 278.978H429.129L442.76 218.812Z" fill="#407BFF"/>
<path opacity="0.5" d="M442.76 218.812H348.751L335.132 278.978H429.129L442.76 218.812Z" fill="black"/>
<path d="M479.063 267.145C479.063 267.145 465.229 241.295 484.376 220.722C484.376 220.722 489.385 224.268 489.309 228.968C489.232 233.668 483.945 234.932 485.073 238.89C486.202 242.848 491.21 246.765 487.926 250.049C484.642 253.334 488.459 256.247 488.231 260.26C488.002 264.273 479.063 267.145 479.063 267.145Z" fill="#407BFF"/>
<path d="M480.116 269.509C480.116 269.509 485.72 240.251 461.527 227.291C461.527 227.291 457.799 232.362 459.257 236.911C460.715 241.46 466.079 240.732 466.155 244.896C466.231 249.06 462.63 254.447 466.7 256.44C470.77 258.432 467.968 262.514 469.376 266.252C470.783 269.99 480.116 269.509 480.116 269.509Z" fill="#407BFF"/>
<path opacity="0.5" d="M480.116 269.509C480.116 269.509 485.72 240.251 461.527 227.291C461.527 227.291 457.799 232.362 459.257 236.911C460.715 241.46 466.079 240.732 466.155 244.896C466.231 249.06 462.63 254.447 466.7 256.44C470.77 258.432 467.968 262.514 469.376 266.252C470.783 269.99 480.116 269.509 480.116 269.509Z" fill="black"/>
<path d="M458.915 263.023C458.915 263.023 459.384 282.262 477.022 282.262C494.659 282.262 495.116 263.023 495.116 263.023H458.915Z" fill="#407BFF"/>
<path opacity="0.5" d="M458.915 263.023C458.915 263.023 459.384 282.262 477.022 282.262C494.659 282.262 495.116 263.023 495.116 263.023H458.915Z" fill="black"/>
<path d="M364.106 136.96L349.042 115.865L333.979 136.96H341.067V164.267H357.018V136.96H364.106Z" fill="#407BFF"/>
<path d="M408.296 161.766C408.296 151.56 412.037 141.773 418.695 134.557C425.353 127.34 434.384 123.286 443.8 123.286V133.305C440.354 133.303 436.941 134.037 433.756 135.465C430.572 136.893 427.678 138.987 425.241 141.628C422.803 144.268 420.87 147.404 419.551 150.854C418.231 154.305 417.552 158.003 417.552 161.738L408.296 161.766Z" fill="#407BFF"/>
<path d="M408.296 161.766H417.552C417.552 169.311 420.318 176.546 425.24 181.881C430.163 187.216 436.839 190.213 443.8 190.213C448.406 190.223 452.931 188.904 456.911 186.393L461.552 195.147C456.155 198.524 450.032 200.302 443.8 200.302C437.567 200.302 431.445 198.524 426.047 195.147C420.65 191.769 416.168 186.911 413.052 181.061C409.936 175.211 408.296 168.576 408.296 161.821V161.766Z" fill="#407BFF"/>
<path opacity="0.5" d="M408.296 161.766H417.552C417.552 169.311 420.318 176.546 425.24 181.881C430.163 187.216 436.839 190.213 443.8 190.213C448.406 190.223 452.931 188.904 456.911 186.393L461.552 195.147C456.155 198.524 450.032 200.302 443.8 200.302C437.567 200.302 431.445 198.524 426.047 195.147C420.65 191.769 416.168 186.911 413.052 181.061C409.936 175.211 408.296 168.576 408.296 161.821V161.766Z" fill="white"/>
<path d="M443.8 133.305V123.259C451.641 123.226 459.271 126.008 465.499 131.169C471.728 136.33 476.206 143.581 478.233 151.79C480.26 159.999 479.723 168.704 476.705 176.547C473.688 184.391 468.359 190.931 461.552 195.147L456.924 186.448C461.965 183.337 465.913 178.503 468.15 172.702C470.387 166.901 470.787 160.46 469.287 154.387C467.787 148.313 464.472 142.949 459.861 139.135C455.249 135.321 449.601 133.27 443.8 133.305V133.305Z" fill="#407BFF"/>
<path opacity="0.7" d="M443.8 133.305V123.259C451.641 123.226 459.271 126.008 465.499 131.169C471.728 136.33 476.206 143.581 478.233 151.79C480.26 159.999 479.723 168.704 476.705 176.547C473.688 184.391 468.359 190.931 461.552 195.147L456.924 186.448C461.965 183.337 465.913 178.503 468.15 172.702C470.387 166.901 470.787 160.46 469.287 154.387C467.787 148.313 464.472 142.949 459.861 139.135C455.249 135.321 449.601 133.27 443.8 133.305V133.305Z" fill="black"/>
<path d="M410.464 67.3395H378.118C376.964 67.3395 375.858 67.8361 375.042 68.7201C374.227 69.6041 373.768 70.8031 373.768 72.0532V136.878C373.778 138.121 374.241 139.309 375.056 140.184C375.87 141.059 376.971 141.55 378.118 141.55H419.518C420.669 141.547 421.772 141.048 422.585 140.165C423.398 139.281 423.854 138.084 423.854 136.837V81.8656L410.464 67.3395Z" fill="#263238"/>
<path d="M408.562 135.105H381.668C381.164 135.105 380.68 134.888 380.323 134.501C379.966 134.115 379.766 133.59 379.766 133.044C379.769 132.499 379.971 131.978 380.328 131.595C380.684 131.211 381.166 130.996 381.668 130.996H408.575C409.077 130.996 409.559 131.211 409.915 131.595C410.272 131.978 410.474 132.499 410.477 133.044V133.044C410.474 133.592 410.27 134.116 409.912 134.502C409.553 134.888 409.068 135.105 408.562 135.105V135.105Z" fill="#407BFF"/>
<path d="M395.882 77.9626H381.668C381.166 77.9626 380.684 77.7473 380.328 77.3637C379.971 76.9801 379.769 76.4593 379.766 75.9149V75.9149C379.766 75.3682 379.966 74.8439 380.323 74.4573C380.68 74.0707 381.164 73.8535 381.668 73.8535H395.895C396.399 73.8535 396.883 74.0707 397.24 74.4573C397.597 74.8439 397.797 75.3682 397.797 75.9149C397.795 76.1857 397.744 76.4534 397.647 76.7028C397.55 76.9522 397.409 77.1784 397.231 77.3686C397.053 77.5587 396.843 77.709 396.611 77.811C396.38 77.9129 396.132 77.9644 395.882 77.9626V77.9626Z" fill="#407BFF"/>
<path d="M405.177 86.1258H381.668C381.166 86.1258 380.684 85.9105 380.328 85.5269C379.971 85.1433 379.769 84.6225 379.766 84.0782V84.0782C379.766 83.5314 379.966 83.0071 380.323 82.6205C380.68 82.2339 381.164 82.0167 381.668 82.0167H405.189C405.692 82.0204 406.172 82.2391 406.526 82.6253C406.88 83.0115 407.079 83.5338 407.079 84.0782V84.0782C407.079 84.3482 407.029 84.6156 406.934 84.8649C406.838 85.1143 406.698 85.3406 406.521 85.5309C406.344 85.7213 406.134 85.8718 405.904 85.9739C405.673 86.076 405.426 86.1276 405.177 86.1258Z" fill="#407BFF"/>
<path d="M415.98 94.289H381.668C381.166 94.289 380.684 94.0737 380.328 93.6901C379.971 93.3065 379.769 92.7857 379.766 92.2414V92.2414C379.766 91.6946 379.966 91.1703 380.323 90.7837C380.68 90.3971 381.164 90.1799 381.668 90.1799H415.993C416.497 90.1799 416.981 90.3971 417.338 90.7837C417.694 91.1703 417.895 91.6946 417.895 92.2414V92.2414C417.893 92.5121 417.842 92.7798 417.745 93.0292C417.648 93.2786 417.507 93.5048 417.329 93.695C417.151 93.8851 416.94 94.0355 416.709 94.1374C416.478 94.2393 416.23 94.2908 415.98 94.289V94.289Z" fill="#407BFF"/>
<path d="M415.98 102.452H396.022C395.52 102.452 395.038 102.237 394.681 101.853C394.325 101.47 394.123 100.949 394.12 100.405C394.12 99.8578 394.32 99.3335 394.677 98.9469C395.034 98.5603 395.517 98.3431 396.022 98.3431H415.98C416.485 98.3431 416.968 98.5603 417.325 98.9469C417.682 99.3335 417.882 99.8578 417.882 100.405V100.405C417.879 100.949 417.677 101.47 417.321 101.853C416.964 102.237 416.482 102.452 415.98 102.452V102.452Z" fill="#407BFF"/>
<path d="M386.867 102.452H381.668C381.166 102.452 380.684 102.237 380.328 101.853C379.971 101.47 379.769 100.949 379.766 100.405C379.766 99.8578 379.966 99.3335 380.323 98.9469C380.68 98.5603 381.164 98.3431 381.668 98.3431H386.879C387.384 98.3431 387.868 98.5603 388.224 98.9469C388.581 99.3335 388.781 99.8578 388.781 100.405C388.78 100.675 388.729 100.943 388.632 101.192C388.535 101.442 388.393 101.668 388.215 101.858C388.038 102.048 387.827 102.199 387.596 102.301C387.364 102.402 387.117 102.454 386.867 102.452V102.452Z" fill="#407BFF"/>
<path d="M415.98 110.615H381.668C381.164 110.615 380.68 110.398 380.323 110.012C379.966 109.625 379.766 109.101 379.766 108.554C379.769 108.01 379.971 107.489 380.328 107.105C380.684 106.722 381.166 106.506 381.668 106.506H415.993C416.495 106.506 416.977 106.722 417.333 107.105C417.69 107.489 417.891 108.01 417.895 108.554V108.554C417.895 108.826 417.845 109.095 417.749 109.346C417.652 109.597 417.511 109.825 417.333 110.017C417.155 110.208 416.944 110.36 416.712 110.462C416.48 110.565 416.231 110.617 415.98 110.615V110.615Z" fill="#407BFF"/>
<path d="M402.729 118.779H381.668C381.164 118.779 380.68 118.561 380.323 118.175C379.966 117.788 379.766 117.264 379.766 116.717C379.769 116.173 379.971 115.652 380.328 115.268C380.684 114.885 381.166 114.67 381.668 114.67H402.742C403.244 114.67 403.726 114.885 404.083 115.268C404.439 115.652 404.641 116.173 404.644 116.717V116.717C404.644 116.989 404.595 117.258 404.498 117.509C404.402 117.76 404.261 117.988 404.083 118.18C403.905 118.371 403.693 118.523 403.461 118.626C403.229 118.728 402.98 118.78 402.729 118.779V118.779Z" fill="#407BFF"/>
<path d="M415.98 118.779H410.35C409.848 118.775 409.367 118.556 409.013 118.17C408.659 117.784 408.461 117.262 408.461 116.717C408.461 116.174 408.66 115.653 409.014 115.269C409.369 114.885 409.849 114.67 410.35 114.67H415.98C416.482 114.67 416.964 114.885 417.321 115.268C417.677 115.652 417.879 116.173 417.882 116.717V116.717C417.882 117.264 417.682 117.788 417.325 118.175C416.968 118.561 416.485 118.779 415.98 118.779V118.779Z" fill="#407BFF"/>
<path d="M415.98 126.942H381.668C381.164 126.942 380.68 126.725 380.323 126.338C379.966 125.951 379.766 125.427 379.766 124.88C379.769 124.336 379.971 123.815 380.328 123.432C380.684 123.048 381.166 122.833 381.668 122.833H415.993C416.495 122.833 416.977 123.048 417.333 123.432C417.69 123.815 417.891 124.336 417.895 124.88V124.88C417.895 125.152 417.845 125.421 417.749 125.672C417.652 125.923 417.511 126.151 417.333 126.343C417.155 126.535 416.944 126.686 416.712 126.789C416.48 126.892 416.231 126.944 415.98 126.942V126.942Z" fill="#407BFF"/>
<g opacity="0.5">
<path d="M408.562 135.105H381.668C381.164 135.105 380.68 134.888 380.323 134.501C379.966 134.115 379.766 133.59 379.766 133.044C379.769 132.499 379.971 131.978 380.328 131.595C380.684 131.211 381.166 130.996 381.668 130.996H408.575C409.077 130.996 409.559 131.211 409.915 131.595C410.272 131.978 410.474 132.499 410.477 133.044V133.044C410.474 133.592 410.27 134.116 409.912 134.502C409.553 134.888 409.068 135.105 408.562 135.105V135.105Z" fill="white"/>
</g>
<g opacity="0.5">
<path d="M395.882 77.9626H381.668C381.166 77.9626 380.684 77.7473 380.328 77.3637C379.971 76.9801 379.769 76.4593 379.766 75.9149V75.9149C379.766 75.3682 379.966 74.8439 380.323 74.4573C380.68 74.0707 381.164 73.8535 381.668 73.8535H395.895C396.399 73.8535 396.883 74.0707 397.24 74.4573C397.597 74.8439 397.797 75.3682 397.797 75.9149C397.795 76.1857 397.744 76.4534 397.647 76.7028C397.55 76.9522 397.409 77.1784 397.231 77.3686C397.053 77.5587 396.843 77.709 396.611 77.811C396.38 77.9129 396.132 77.9644 395.882 77.9626V77.9626Z" fill="white"/>
</g>
<g opacity="0.5">
<path d="M405.177 86.1258H381.668C381.166 86.1258 380.684 85.9105 380.328 85.5269C379.971 85.1433 379.769 84.6225 379.766 84.0782V84.0782C379.766 83.5314 379.966 83.0071 380.323 82.6205C380.68 82.2339 381.164 82.0167 381.668 82.0167H405.189C405.692 82.0204 406.172 82.2391 406.526 82.6253C406.88 83.0115 407.079 83.5338 407.079 84.0782V84.0782C407.079 84.3482 407.029 84.6156 406.934 84.8649C406.838 85.1143 406.698 85.3406 406.521 85.5309C406.344 85.7213 406.134 85.8718 405.904 85.9739C405.673 86.076 405.426 86.1276 405.177 86.1258Z" fill="white"/>
</g>
<g opacity="0.5">
<path d="M415.98 94.289H381.668C381.166 94.289 380.684 94.0737 380.328 93.6901C379.971 93.3065 379.769 92.7857 379.766 92.2414V92.2414C379.766 91.6946 379.966 91.1703 380.323 90.7837C380.68 90.3971 381.164 90.1799 381.668 90.1799H415.993C416.497 90.1799 416.981 90.3971 417.338 90.7837C417.694 91.1703 417.895 91.6946 417.895 92.2414V92.2414C417.893 92.5121 417.842 92.7798 417.745 93.0292C417.648 93.2786 417.507 93.5048 417.329 93.695C417.151 93.8851 416.94 94.0355 416.709 94.1374C416.478 94.2393 416.23 94.2908 415.98 94.289V94.289Z" fill="white"/>
</g>
<g opacity="0.5">
<path d="M415.98 102.452H396.022C395.52 102.452 395.038 102.237 394.681 101.853C394.325 101.47 394.123 100.949 394.12 100.405C394.12 99.8578 394.32 99.3335 394.677 98.9469C395.034 98.5603 395.517 98.3431 396.022 98.3431H415.98C416.485 98.3431 416.968 98.5603 417.325 98.9469C417.682 99.3335 417.882 99.8578 417.882 100.405V100.405C417.879 100.949 417.677 101.47 417.321 101.853C416.964 102.237 416.482 102.452 415.98 102.452V102.452Z" fill="white"/>
</g>
<g opacity="0.5">
<path d="M386.867 102.452H381.668C381.166 102.452 380.684 102.237 380.328 101.853C379.971 101.47 379.769 100.949 379.766 100.405C379.766 99.8578 379.966 99.3335 380.323 98.9469C380.68 98.5603 381.164 98.3431 381.668 98.3431H386.879C387.384 98.3431 387.868 98.5603 388.224 98.9469C388.581 99.3335 388.781 99.8578 388.781 100.405C388.78 100.675 388.729 100.943 388.632 101.192C388.535 101.442 388.393 101.668 388.215 101.858C388.038 102.048 387.827 102.199 387.596 102.301C387.364 102.402 387.117 102.454 386.867 102.452V102.452Z" fill="white"/>
</g>
<g opacity="0.5">
<path d="M415.98 110.615H381.668C381.164 110.615 380.68 110.398 380.323 110.012C379.966 109.625 379.766 109.101 379.766 108.554C379.769 108.01 379.971 107.489 380.328 107.105C380.684 106.722 381.166 106.506 381.668 106.506H415.993C416.495 106.506 416.977 106.722 417.333 107.105C417.69 107.489 417.891 108.01 417.895 108.554V108.554C417.895 108.826 417.845 109.095 417.749 109.346C417.652 109.597 417.511 109.825 417.333 110.017C417.155 110.208 416.944 110.36 416.712 110.462C416.48 110.565 416.231 110.617 415.98 110.615V110.615Z" fill="white"/>
</g>
<g opacity="0.5">
<path d="M402.729 118.779H381.668C381.164 118.779 380.68 118.561 380.323 118.175C379.966 117.788 379.766 117.264 379.766 116.717C379.769 116.173 379.971 115.652 380.328 115.268C380.684 114.885 381.166 114.67 381.668 114.67H402.742C403.244 114.67 403.726 114.885 404.083 115.268C404.439 115.652 404.641 116.173 404.644 116.717V116.717C404.644 116.989 404.595 117.258 404.498 117.509C404.402 117.76 404.261 117.988 404.083 118.18C403.905 118.371 403.693 118.523 403.461 118.626C403.229 118.728 402.98 118.78 402.729 118.779V118.779Z" fill="white"/>
</g>
<g opacity="0.5">
<path d="M415.98 118.779H410.35C409.848 118.775 409.367 118.556 409.013 118.17C408.659 117.784 408.461 117.262 408.461 116.717C408.461 116.174 408.66 115.653 409.014 115.269C409.369 114.885 409.849 114.67 410.35 114.67H415.98C416.482 114.67 416.964 114.885 417.321 115.268C417.677 115.652 417.879 116.173 417.882 116.717V116.717C417.882 117.264 417.682 117.788 417.325 118.175C416.968 118.561 416.485 118.779 415.98 118.779V118.779Z" fill="white"/>
</g>
<g opacity="0.5">
<path d="M415.98 126.942H381.668C381.164 126.942 380.68 126.725 380.323 126.338C379.966 125.951 379.766 125.427 379.766 124.88C379.769 124.336 379.971 123.815 380.328 123.432C380.684 123.048 381.166 122.833 381.668 122.833H415.993C416.495 122.833 416.977 123.048 417.333 123.432C417.69 123.815 417.891 124.336 417.895 124.88V124.88C417.895 125.152 417.845 125.421 417.749 125.672C417.652 125.923 417.511 126.151 417.333 126.343C417.155 126.535 416.944 126.686 416.712 126.789C416.48 126.892 416.231 126.944 415.98 126.942V126.942Z" fill="white"/>
</g>
<path d="M410.464 67.3395V77.1518C410.463 77.7713 410.574 78.3851 410.792 78.9578C411.01 79.5305 411.33 80.0509 411.734 80.489C412.139 80.9271 412.619 81.2742 413.147 81.5104C413.676 81.7467 414.242 81.8674 414.814 81.8656H423.854L410.464 67.3395Z" fill="#407BFF"/>
<path opacity="0.5" d="M410.464 67.3395V77.1518C410.463 77.7713 410.574 78.3851 410.792 78.9578C411.01 79.5305 411.33 80.0509 411.734 80.489C412.139 80.9271 412.619 81.2742 413.147 81.5104C413.676 81.7467 414.242 81.8674 414.814 81.8656H423.854L410.464 67.3395Z" fill="white"/>
</svg>
