<?xml version="1.0" standalone="no"?>
<!DOCTYPE svg PUBLIC "-//W3C//DTD SVG 20010904//EN"
 "http://www.w3.org/TR/2001/REC-SVG-20010904/DTD/svg10.dtd">
<svg version="1.0" xmlns="http://www.w3.org/2000/svg"
 width="804.000000pt" height="310.000000pt" viewBox="0 0 804.000000 310.000000"
 preserveAspectRatio="xMidYMid meet">

<g transform="translate(0.000000,310.000000) scale(0.100000,-0.100000)"
fill="#000000" stroke="none">
<path d="M3270 1620 c0 -550 -1 -544 60 -575 17 -9 56 -15 95 -15 l65 0 0 45
0 45 -55 0 -55 0 0 500 0 500 -55 0 -55 0 0 -500z"/>
<path d="M840 2041 c0 -11 58 -176 129 -368 207 -557 231 -617 248 -630 20
-15 146 -17 172 -3 10 5 26 29 36 52 62 155 345 933 345 949 0 17 -8 19 -87
19 -49 0 -94 -4 -101 -9 -13 -8 -239 -607 -266 -706 -8 -29 -15 -40 -15 -27
-1 13 -49 155 -107 315 -129 354 -151 409 -167 419 -6 4 -51 8 -99 8 -80 0
-88 -2 -88 -19z"/>
<path d="M1910 2034 c-11 -29 -12 -934 -1 -974 7 -24 11 -25 90 -28 53 -2 88
1 97 9 12 10 14 93 14 499 0 269 -3 495 -6 504 -5 13 -23 16 -95 16 -87 0 -90
-1 -99 -26z"/>
<path d="M2267 2053 c-4 -3 -7 -39 -7 -79 0 -62 3 -75 19 -84 11 -5 82 -10
160 -10 l141 0 2 -422 3 -423 94 -3 c69 -2 97 1 103 10 4 7 8 199 8 426 l0
412 141 0 c77 0 149 5 160 10 16 9 19 22 19 78 0 40 -5 73 -12 80 -9 9 -116
12 -418 12 -224 0 -410 -3 -413 -7z"/>
<path d="M3775 1776 c-27 -13 -68 -42 -90 -65 l-39 -41 32 -33 33 -32 20 28
c38 51 98 77 175 77 82 0 128 -20 161 -69 19 -28 23 -48 23 -107 l0 -74 -107
0 c-129 0 -232 -20 -285 -55 -114 -76 -108 -270 12 -350 39 -26 56 -30 129
-34 128 -5 177 17 231 103 l24 40 13 -30 c6 -16 12 -34 13 -40 0 -6 11 -21 25
-34 19 -18 40 -25 85 -28 l60 -4 0 45 0 46 -42 3 -43 3 -5 255 c-6 285 -10
303 -78 360 -52 43 -113 60 -211 60 -70 0 -96 -5 -136 -24z m315 -487 c0 -90
0 -91 -33 -124 -36 -36 -116 -65 -177 -65 -47 0 -122 38 -137 70 -7 14 -13 48
-13 77 0 40 5 58 25 81 33 40 76 50 218 51 l117 1 0 -91z"/>
<path d="M4705 1783 c-43 -22 -82 -61 -95 -94 -20 -46 -30 -34 -30 36 l0 65
-55 0 -55 0 0 -380 0 -380 55 0 54 0 3 296 3 296 37 33 c66 61 191 73 258 25
65 -46 70 -73 70 -377 l0 -273 56 0 56 0 -4 298 c-3 281 -4 299 -24 337 -52
96 -117 135 -226 135 -46 -1 -84 -7 -103 -17z"/>
<path d="M5474 1784 c-83 -30 -160 -117 -192 -218 -25 -78 -21 -253 6 -330 35
-95 83 -151 167 -191 42 -21 65 -25 145 -25 71 0 105 5 136 19 50 23 106 72
132 114 l19 33 -37 27 -38 27 -26 -38 c-43 -61 -86 -84 -170 -90 -88 -5 -149
17 -189 69 -39 51 -49 112 -46 256 4 118 6 132 31 175 39 65 84 90 172 95 61
4 77 1 116 -19 25 -13 56 -41 69 -60 l23 -37 44 21 c41 21 42 22 29 47 -21 41
-86 98 -135 120 -55 25 -192 27 -256 5z"/>
<path d="M6192 1769 c-138 -69 -207 -234 -182 -435 18 -140 80 -236 185 -286
51 -24 72 -28 146 -28 119 0 170 19 242 91 31 32 57 61 57 66 -1 4 -17 18 -36
31 l-36 22 -39 -44 c-47 -53 -103 -77 -180 -77 -135 -1 -228 90 -232 229 l-2
47 278 3 277 2 0 39 c0 113 -54 249 -119 300 -69 54 -117 71 -212 71 -76 0
-93 -3 -147 -31z m248 -74 c64 -34 110 -112 110 -190 l0 -45 -217 2 -218 3 3
40 c7 97 81 188 170 206 45 9 118 2 152 -16z"/>
<path d="M6880 1410 l0 -380 50 0 50 0 0 269 c0 262 1 269 23 301 32 49 84 71
177 77 l80 6 0 55 0 55 -57 -7 c-86 -10 -140 -40 -176 -97 -16 -27 -34 -46
-38 -43 -5 3 -9 36 -9 75 l0 69 -50 0 -50 0 0 -380z"/>
</g>
</svg>
